<svg width="815" height="168" viewBox="0 0 815 168" fill="none" xmlns="http://www.w3.org/2000/svg">
<g clip-path="url(#clip0_229_12326)">
<path d="M328.737 126.553C315.939 126.553 305.941 119.338 305.941 105.697C305.941 90.7715 317.939 85.0385 331.037 85.0385H341.735C348.334 85.0385 351.333 82.4685 351.333 77.9216C351.333 71.9909 345.834 69.1244 338.735 69.1244C330.237 69.1244 324.838 73.177 324.338 80.3927H308.541C309.54 66.3567 318.739 57.2629 338.535 57.2629C358.332 57.2629 366.431 66.7521 366.431 79.8985V107.872C366.431 111.035 367.63 112.221 370.83 112.221H373.329V124.478H363.031C355.832 124.478 351.833 120.919 351.833 114.791V112.32H351.633C347.434 122.007 338.935 126.553 328.737 126.553ZM333.436 114.494C342.435 114.494 351.333 108.959 351.333 95.4172V89.3877H351.133C349.134 93.4403 345.234 95.4172 338.435 95.7138L333.536 95.9115C325.638 96.1091 322.238 100.063 322.238 105.203C322.238 110.343 325.638 114.593 333.536 114.593L333.436 114.494Z" fill="#0B2471"/>
<path d="M383.628 106.883V71.5954H370.93V59.3385H383.628V41.5464H398.825V59.3385H418.721V71.5954H398.825V104.709C398.825 110.244 401.724 112.418 406.724 112.418H419.021V124.675H401.524C389.727 124.675 383.528 118.843 383.528 106.982L383.628 106.883Z" fill="#0B2471"/>
<path d="M422.715 91.9572C422.715 70.3101 436.313 57.3613 455.31 57.3613C474.307 57.3613 487.004 68.5309 487.004 89.4861V96.2075H438.813C439.313 107.377 445.612 114.692 455.71 114.692C463.009 114.692 468.508 110.738 470.607 104.511H486.204C483.305 117.558 471.807 126.553 455.51 126.553C436.013 126.553 422.815 113.505 422.815 91.9572H422.715ZM471.807 85.4334C471.807 75.9442 466.008 69.2228 455.71 69.2228C445.412 69.2228 439.912 76.3396 438.913 85.4334H471.807Z" fill="#0B2471"/>
<path d="M497.405 59.3372H512.303V69.6171H512.503C515.602 63.0933 519.801 59.3372 528.6 59.3372H534.999V71.594H525.9C516.802 71.594 512.603 76.4374 512.603 87.1127V124.575H497.505V59.3372H497.405Z" fill="#0B2471"/>
<path d="M538.597 102.929H554.195C554.595 111.133 559.794 114.692 567.592 114.692C575.391 114.692 580.19 110.935 580.19 105.104C580.19 99.9637 576.991 96.8994 568.792 96.8994H561.593C547.796 96.8994 539.797 89.3872 539.797 78.4154C539.797 65.9609 549.995 57.3613 567.292 57.3613C584.589 57.3613 594.788 66.6528 595.188 80.4911H579.69C579.29 73.1766 575.291 69.2228 567.192 69.2228C559.994 69.2228 555.594 72.5835 555.594 77.9211C555.594 82.7646 559.294 85.1369 565.393 85.1369H573.291C589.089 85.1369 596.287 93.9341 596.287 104.609C596.287 117.558 585.989 126.652 567.592 126.652C549.196 126.652 538.897 117.36 538.497 103.028L538.597 102.929Z" fill="#0B2471"/>
<path d="M606.789 41.7434H621.886V58.5471C621.886 61.5125 621.886 63.7859 621.686 69.3212H621.886C625.386 62.2044 632.185 57.361 641.683 57.361C655.181 57.361 664.479 66.6524 664.479 82.4677V124.576H649.382V85.433C649.382 73.7693 644.383 69.3212 636.884 69.3212C629.385 69.3212 621.886 74.1647 621.886 87.2122V124.576H606.789V41.7434Z" fill="#0B2471"/>
<path d="M674.773 91.9572C674.773 70.3101 688.271 57.3613 707.368 57.3613C726.464 57.3613 739.062 68.5309 739.062 89.4861V96.2075H690.871C691.371 107.377 697.669 114.692 707.768 114.692C715.066 114.692 720.566 110.738 722.665 104.511H738.262C735.363 117.558 723.865 126.553 707.568 126.553C687.971 126.553 674.873 113.505 674.873 91.9572H674.773ZM723.865 85.4334C723.865 75.9442 718.066 69.2228 707.768 69.2228C697.47 69.2228 691.97 76.3396 690.971 85.4334H723.865Z" fill="#0B2471"/>
<path d="M746.562 91.9568C746.562 69.3212 760.559 57.361 775.957 57.361C786.055 57.361 794.054 62.5009 798.053 70.8039H798.253C798.053 68.5305 798.053 66.5536 798.053 64.1813V41.7434H813.15V124.576H798.153V120.227C798.153 117.854 798.153 115.68 798.253 113.209H798.053C794.054 121.512 786.055 126.652 775.957 126.652C760.559 126.652 746.562 114.691 746.562 92.0557V91.9568ZM780.456 114.691C791.454 114.691 798.053 105.696 798.053 91.9568C798.053 78.2173 791.454 69.2224 780.456 69.2224C769.458 69.2224 762.759 78.2173 762.759 91.9568C762.759 105.696 769.358 114.691 780.456 114.691Z" fill="#0B2471"/>
<path fill-rule="evenodd" clip-rule="evenodd" d="M250.72 93.5007L264.648 123.983H277.046L314.839 41.0518H297.442L270.947 102.83H270.647L244.352 41.0518H226.755L243.247 77.1458L230.754 106.191H230.554L204.159 41.0518H186.662L224.555 123.983H236.853L250.72 93.5007Z" fill="#0B2471"/>
<g clip-path="url(#clip1_229_12326)">
<path fill-rule="evenodd" clip-rule="evenodd" d="M15.0163 77.0848C14.8185 79.1911 14.7174 81.3253 14.7174 83.483C14.7174 110.363 30.4085 133.591 53.1603 144.562C52.223 142.987 51.3394 141.361 50.5106 139.699C43.1718 124.982 38.8381 105.151 38.8381 83.6352C38.8381 76.8459 39.2696 70.2244 40.0908 63.8783C33.9098 63.6875 29.7643 64.9214 26.7874 66.4602C22.8618 68.4894 20.4453 71.1509 17.5331 74.3585C16.7439 75.2277 15.9183 76.1371 15.0163 77.0848ZM22.0009 52.924C27.5913 50.4236 34.3121 49.1595 42.6706 49.7227C44.624 41.5408 47.2753 34.0589 50.5106 27.5711C51.4145 25.7584 52.3837 23.9891 53.4167 22.2814C39.8532 28.7516 28.776 39.5694 22.0009 52.924ZM75.594 18.5232C71.4675 21.2175 67.1943 26.167 63.3259 33.9244C60.7287 39.1327 58.5127 45.2675 56.8181 52.105C64.5132 54.1767 70.5898 57.5994 75.594 61.7036L75.594 18.5232ZM75.5939 82.7284C70.0356 75.0897 63.9596 69.1359 54.221 66.2048C53.5248 71.7504 53.15 77.5889 53.15 83.6352C53.15 103.427 57.1657 120.993 63.3259 133.346C67.1942 141.103 71.4674 146.053 75.5938 148.747L75.5939 82.7284ZM89.9058 149.405L89.9059 103.673C94.6839 109.735 100.577 115.456 108.648 119.315C107.138 124.501 105.317 129.215 103.257 133.346C99.0492 141.785 94.3621 146.9 89.9058 149.405ZM111.835 104.824C104.148 100.103 99.27 92.596 93.3245 83.4473C92.853 82.7219 92.3749 81.9862 91.8881 81.2407C91.2425 80.252 90.5835 79.2516 89.9059 78.2459L89.906 17.8654C94.3622 20.37 99.0492 25.4859 103.257 33.9244C109.417 46.2777 113.433 63.8434 113.433 83.6352C113.433 91.0643 112.867 98.1797 111.835 104.824ZM125.484 109.978C126.957 101.68 127.745 92.811 127.745 83.6352C127.745 62.1194 123.411 42.2879 116.073 27.5711C115.301 26.0244 114.482 24.5093 113.617 23.037C135.677 34.2511 150.782 57.1096 150.782 83.483C150.782 88.8074 150.167 93.9885 149.002 98.9595C148.81 98.9116 148.811 98.9103 148.811 98.909L148.813 98.9009L148.816 98.8864L148.822 98.8641L148.827 98.8462C148.827 98.8458 148.821 98.868 148.808 98.9107C148.783 98.9966 148.732 99.1633 148.652 99.3957C148.488 99.8637 148.211 100.578 147.787 101.424C146.927 103.143 145.558 105.224 143.503 106.957C140.658 109.356 135.363 112.045 125.484 109.978ZM122.225 123.865C120.521 129.604 118.455 134.921 116.073 139.699C115.377 141.095 114.642 142.464 113.87 143.8C122.856 139.184 130.678 132.632 136.78 124.696C132.493 125.23 127.654 125.028 122.225 123.865ZM84.0061 165.555C128.902 164.886 165.094 128.399 165.094 83.483C165.094 38.1487 128.225 1.40167 82.7498 1.40167C37.2744 1.40167 0.405457 38.1487 0.405457 83.483C0.405457 128.817 37.2744 165.564 82.7498 165.564C82.8632 165.564 82.9766 165.564 83.0899 165.564C83.1571 165.564 83.2243 165.564 83.2916 165.564C83.5306 165.564 83.7688 165.561 84.0061 165.555Z" fill="#265CFF"/>
</g>
</g>
<defs>
<clipPath id="clip0_229_12326">
<rect width="815" height="168" fill="white"/>
</clipPath>
<clipPath id="clip1_229_12326">
<rect width="165.482" height="165" fill="white" transform="translate(0 1)"/>
</clipPath>
</defs>
</svg>
