<?xml version="1.0" encoding="UTF-8"?><svg version="1.1" viewBox="0 0 24 24" xmlns="http://www.w3.org/2000/svg" xmlns:xlink="http://www.w3.org/1999/xlink"><g fill="#FFB800"><path d="M12 0c-6.6167 0-12 5.3833-12 12 0 6.6167 5.3833 12 12 12 6.6167 0 12-5.3833 12-12 0-6.6167-5.3833-12-12-12Zm0 23c-6.06543 0-11-4.93457-11-11 0-6.06543 4.93457-11 11-11 6.06543 0 11 4.93457 11 11 0 6.06543-4.93457 11-11 11Z"></path><path d="M18.1465 7.14648l-8.64648 8.64648 -4.64648-4.64648c-.195312-.195312-.511719-.195312-.707031 0 -.195312.195312-.195312.511719 0 .707031l5 5c.0976562.0976563.225586.146484.353516.146484 .12793 0 .255859-.0488281.353516-.146484l9-9c.195312-.195312.195312-.511719 0-.707031 -.195312-.195312-.511719-.195313-.707031-1.77636e-15Z"></path></g></svg>